<?xml version="1.0" encoding="UTF-8"?>
<svg id="Camada_1" xmlns="http://www.w3.org/2000/svg" version="1.1" viewBox="0 0 32.82 32.18">
  <!-- Generator: Adobe Illustrator 29.1.0, SVG Export Plug-In . SVG Version: 2.1.0 Build 142)  -->
  <defs>
    <style>
      .st0 {
        fill: #a00;
      }
    </style>
  </defs>
  <path class="st0" d="M21.6,31.5c-5.64-.59-10.26-4.5-13.8-8.46C3.39,18.1-1.34,10.38,3.41,4.21c.64-.83,3.08-3.06,4.05-3.33,1.55-.43,2.68.97,3.47,2.02,1.09,1.46,2.93,4.07,2.32,5.9-.77,2.31-4.38,2.49-3.96,5.33.38,2.57,5.15,7.67,7.54,8.89,2.94,1.5,3.45-.37,5.44-1.83,2.32-1.7,4.19-.31,6.07,1.17s4.51,3.4,2.11,5.61c-2.03,1.87-4.28,3.34-7.2,3.54h-1.63Z"/>
</svg>